# xmcd
#
# Track frame offsets:
#	150
#	11302
#	23022
#	37562
#	46567
#	58702
#	70960
#	81380
#	91660
#	100945
#	113292
#	126517
#	137347
#	149087
#	159880
#	171592
#	180747
#	194522
#	207600
#	220435
#
# Disc length: 3091 seconds
#
# Revision: 1
# Processed by: cddbd v1.5PL3 Copyright (c) Steve Scherf et al.
# Submitted via: EasyCDDAExtractor 7.0.4.1
#
DISCID=110c1114
DTITLE=Slim Whitman - The Collection - Disc 02
DYEAR=1953
DGENRE=Country and Western
TTITLE0=Marie Elena
TTITLE1=Home ( When Shadows Fall)
TTITLE2=The Song Of The Waterwheel
TTITLE3=Ages And Ages Ago
TTITLE4=Each Night At Nine
TTITLE5=Smoke Signals
TTITLE6=Brahms Lullaby
TTITLE7=I'll Never Stop Loving You
TTITLE8=Never
TTITLE9=Forty Shades Of Green
TTITLE10=Among My Souvenirs
TTITLE11=Careless Love
TTITLE12=I Dreamed Of An Old Love Affair
TTITLE13=A Travelin' Man
TTITLE14=From Heaven To A Heartache
TTITLE15=Forever
TTITLE16=I Really Don't Want To Know
TTITLE17=I'll Hold You In My Heart
TTITLE18=Silver Threads Among The Gold
TTITLE19=Happy Anniversary
EXTD=
EXTT0=
EXTT1=
EXTT2=
EXTT3=
EXTT4=
EXTT5=
EXTT6=
EXTT7=
EXTT8=
EXTT9=
EXTT10=
EXTT11=
EXTT12=
EXTT13=
EXTT14=
EXTT15=
EXTT16=
EXTT17=
EXTT18=
EXTT19=
PLAYORDER=
